PathFileType	4	(X/Y/Z)	/Users/itak/Documents/Research/Walk-IL/dataset/trc/00386_00012.trc
DataRate	CameraRate	NumFrames	NumMarkers	Units	OrigDataRate	OrigDataStartFrame	OrigNumFrames
100.000000	100.000000	4	54	mm	100.000000	0	578
Frame#	Time	RPSI			LPSI			L3			STRN			T10			C7			CLAV			RBAK			LBAK			LSHO			LUPA			LAEL			LAOL			LWTS			LWPS			LFRA			LIFD			LHPS			LHTS			RSHO			RUPA			RAEL			RAOL			RWTS			RWPS			RFRA			RIFD			RHTS			RHPS			RBHD			LFHD			RFHD			LBHD			RHIP			RASI			LASI			LKNE			LTHI			LANK			LTIP			LTOE			LMT1			LMT5			LHEE			RKNE			RTHI			RANK			RTIP			RTOE			RMT1			RMT5			RHEE			LHIP			*53			
		X1	Y1	Z1	X2	Y2	Z2	X3	Y3	Z3	X4	Y4	Z4	X5	Y5	Z5	X6	Y6	Z6	X7	Y7	Z7	X8	Y8	Z8	X9	Y9	Z9	X10	Y10	Z10	X11	Y11	Z11	X12	Y12	Z12	X13	Y13	Z13	X14	Y14	Z14	X15	Y15	Z15	X16	Y16	Z16	X17	Y17	Z17	X18	Y18	Z18	X19	Y19	Z19	X20	Y20	Z20	X21	Y21	Z21	X22	Y22	Z22	X23	Y23	Z23	X24	Y24	Z24	X25	Y25	Z25	X26	Y26	Z26	X27	Y27	Z27	X28	Y28	Z28	X29	Y29	Z29	X30	Y30	Z30	X31	Y31	Z31	X32	Y32	Z32	X33	Y33	Z33	X34	Y34	Z34	X35	Y35	Z35	X36	Y36	Z36	X37	Y37	Z37	X38	Y38	Z38	X39	Y39	Z39	X40	Y40	Z40	X41	Y41	Z41	X42	Y42	Z42	X43	Y43	Z43	X44	Y44	Z44	X45	Y45	Z45	X46	Y46	Z46	X47	Y47	Z47	X48	Y48	Z48	X49	Y49	Z49	X50	Y50	Z50	X51	Y51	Z51	X52	Y52	Z52	X53	Y53	Z53	X54	Y54	Z54	

1	0	997.711181640625	981.870361328125	-33.26803207397461	983.0271606445312	973.6724853515625	-164.374755859375	997.7978515625	1046.459838867188	-96.93832397460938	1231.76123046875	1212.297607421875	-104.6404266357422	994.2791748046875	1143.5390625	-102.2711868286133	1001.991149902344	1395.659790039062	-115.1320648193359	1168.846801757812	1328.182250976562	-107.3497085571289	978.3114624023438	1248.49609375	-41.6974983215332	997.9444580078125	1355.589477539062	-220.4762115478516	1087.325439453125	1379.342895507812	-269.219482421875	1077.376586914062	1260.466186523438	-339.6989440917969	1107.412841796875	1063.025756835938	-353.8735961914062	1042.764770507812	1041.982543945312	-300.8945007324219	1205.85205078125	857.8873901367188	-286.2762145996094	1164.03125	836.180908203125	-354.3424987792969	1130.77197265625	959.1983032226562	-355.1841735839844	1220.337158203125	681.3829956054688	-281.7275085449219	1183.710205078125	753.0863647460938	-340.4273681640625	1233.274780273438	763.0908813476562	-299.6769104003906	1074.218505859375	1383.315185546875	47.27096176147461	1072.062377929688	1318.952880859375	108.4786834716797	1086.975830078125	1056.831787109375	142.7113037109375	1058.477905273438	1046.53955078125	53.81664276123047	1216.436889648438	845.5059814453125	97.94686126708984	1179.776733398438	831.4307250976562	160.9289093017578	1114.630981445312	990.9876098632812	154.6203308105469	1224.612670898438	673.054443359375	97.57380676269531	1241.823364257812	742.6964111328125	114.7969207763672	1188.242309570312	742.00732421875	158.0213775634766	1008.181396484375	1588.225341796875	-56.88640213012695	1192.677612304688	1603.563232421875	-129.4404754638672	1137.318481445312	1605.6640625	-18.0430793762207	1066.216674804688	1583.536376953125	-205.8729248046875	1092.709228515625	955.9152221679688	79.56993103027344	1215.947265625	966.8615112304688	17.04263496398926	1186.438598632812	956.3475952148438	-242.2374420166016	1097.022216796875	465.2911987304688	-260.5552368164062	1096.003662109375	607.9824829101562	-272.0096130371094	1003.904968261719	31.02773857116699	-214.6570434570312	1045.835571289062	235.4196014404297	-250.3097534179688	1219.781372070312	32.07283020019531	-153.6260833740234	1140.4677734375	34.90247344970703	-123.4470291137695	1131.406005859375	30.61899185180664	-227.1689910888672	967.1553344726562	28.46941947937012	-157.5455932617188	1103.152465820312	466.9012145996094	56.96155548095703	1155.34814453125	727.923828125	78.40423583984375	1047.095092773438	45.87131500244141	22.41401672363281	1108.237060546875	341.71435546875	42.4356803894043	1225.057495117188	26.59896087646484	-43.89352416992188	1148.582153320312	33.36687850952148	-71.01889801025391	1130.646362304688	34.88169097900391	26.93187141418457	970.3382568359375	32.30999755859375	-29.87607955932617	1075.556518554688	958.4893798828125	-278.1719665527344	nan	nan	nan	
2	0.01	997.7034301757812	981.8753051757812	-33.28280258178711	983.038330078125	973.6639404296875	-164.3898468017578	997.8433227539062	1046.429321289062	-96.94786834716797	1231.757934570312	1212.292114257812	-104.6369705200195	994.2445678710938	1143.55859375	-102.2455902099609	1002.000732421875	1395.664672851562	-115.1470565795898	1168.84765625	1328.17529296875	-107.3644409179688	978.2735595703125	1248.475952148438	-41.70344543457031	997.937255859375	1355.57373046875	-220.4921264648438	1087.316528320312	1379.3330078125	-269.2684326171875	1077.341796875	1260.433227539062	-339.7031860351562	1107.366333007812	1062.98486328125	-353.85888671875	1042.736450195312	1041.944091796875	-300.8580932617188	1205.8154296875	857.8404541015625	-286.2548217773438	1164.001586914062	836.1361083984375	-354.3196716308594	1130.735961914062	959.1514282226562	-355.1675720214844	1220.230834960938	681.2461547851562	-281.6237182617188	1183.6728515625	753.050048828125	-340.3939819335938	1233.231201171875	763.037841796875	-299.6354064941406	1074.24365234375	1383.288330078125	47.28397369384766	1072.036254882812	1318.935180664062	108.4832382202148	1086.884521484375	1056.826538085938	142.6916656494141	1058.508056640625	1046.518432617188	53.81021881103516	1216.400756835938	845.4953002929688	97.99591064453125	1179.690185546875	831.4349975585938	160.9397583007812	1114.510375976562	990.9740600585938	154.5978698730469	1224.55029296875	673.0878295898438	97.62654876708984	1241.783325195312	742.6641235351562	114.8408432006836	1188.090087890625	741.9979248046875	158.0336608886719	1008.107543945312	1588.106689453125	-56.73376846313477	1192.59033203125	1603.6806640625	-129.2146453857422	1137.162353515625	1605.674560546875	-17.91168594360352	1066.179321289062	1583.546875	-205.7576293945312	1092.66748046875	955.908447265625	79.54740905761719	1216.07373046875	966.8851928710938	17.06228446960449	1186.492919921875	956.4019165039062	-242.300537109375	1097.043334960938	465.2852172851562	-260.5675354003906	1096.0234375	607.9813842773438	-272.0274353027344	1003.906982421875	31.02639961242676	-214.6569366455078	1045.83154296875	235.4107208251953	-250.323486328125	1219.778930664062	32.07497406005859	-153.6195831298828	1140.46533203125	34.90085220336914	-123.4455718994141	1131.404663085938	30.61554908752441	-227.1690063476562	967.1551513671875	28.4694766998291	-157.5456695556641	1103.1513671875	466.9010620117188	56.95703887939453	1155.34814453125	727.9237670898438	78.40422058105469	1047.122924804688	45.88003158569336	22.41587829589844	1108.255737304688	341.7228393554688	42.44180297851562	1225.055297851562	26.59477806091309	-43.88914108276367	1148.5810546875	33.36592864990234	-71.01924896240234	1130.64794921875	34.88437271118164	26.93050956726074	970.3560791015625	32.31157302856445	-29.8712329864502	1075.352661132812	958.4937133789062	-278.2235412597656	nan	nan	nan	
3	0.02	997.69287109375	981.8790893554688	-33.30435562133789	983.0634155273438	973.6505737304688	-164.4091186523438	997.8927612304688	1046.38818359375	-96.9586181640625	1231.752197265625	1212.286865234375	-104.6318283081055	994.21142578125	1143.57275390625	-102.2235641479492	1002.018920898438	1395.66015625	-115.1566848754883	1168.847778320312	1328.167236328125	-107.3791885375977	978.230224609375	1248.453247070312	-41.71188735961914	997.921630859375	1355.551025390625	-220.5049896240234	1087.296020507812	1379.3154296875	-269.3224182128906	1077.2919921875	1260.395385742188	-339.7073059082031	1107.302490234375	1062.927490234375	-353.8403625488281	1042.698974609375	1041.894409179688	-300.8157958984375	1205.776977539062	857.7874145507812	-286.2285461425781	1163.972412109375	836.0817260742188	-354.2939147949219	1130.692993164062	959.0946655273438	-355.1483764648438	1220.146484375	681.1464233398438	-281.529541015625	1183.635864257812	753.0072631835938	-340.3529663085938	1233.186157226562	762.9803466796875	-299.5839538574219	1074.251831054688	1383.257202148438	47.2913818359375	1072.001708984375	1318.91455078125	108.4916000366211	1086.76318359375	1056.819702148438	142.6650695800781	1058.540161132812	1046.495239257812	53.79819107055664	1216.352661132812	845.4813842773438	98.05694580078125	1179.5859375	831.43896484375	160.9586181640625	1114.376342773438	990.958984375	154.5797424316406	1224.47216796875	673.1151733398438	97.68717193603516	1241.71875	742.6099853515625	114.9048919677734	1187.883544921875	741.9801025390625	158.0616760253906	1008.024169921875	1587.958862304688	-56.54193496704102	1192.505126953125	1603.821166992188	-128.937255859375	1136.988647460938	1605.685546875	-17.76919174194336	1066.14013671875	1583.57080078125	-205.6169891357422	1092.622314453125	955.9024047851562	79.52103424072266	1216.209716796875	966.9136962890625	17.08122825622559	1186.551635742188	956.457763671875	-242.3683624267578	1097.070190429688	465.2784423828125	-260.5839233398438	1096.049682617188	607.9796752929688	-272.0476379394531	1003.90869140625	31.02517318725586	-214.6570892333984	1045.8310546875	235.4010620117188	-250.3414916992188	1219.77783203125	32.07908630371094	-153.6129455566406	1140.465698242188	34.90468978881836	-123.4448928833008	1131.403686523438	30.61367034912109	-227.1676940917969	967.1549682617188	28.46953964233398	-157.5457153320312	1103.152221679688	466.9012145996094	56.95077896118164	1155.348876953125	727.9232788085938	78.40364074707031	1047.150024414062	45.88904571533203	22.41584014892578	1108.278930664062	341.7330627441406	42.44740295410156	1225.053100585938	26.59100341796875	-43.88542938232422	1148.580810546875	33.36623382568359	-71.01899719238281	1130.650146484375	34.887451171875	26.92901229858398	970.3762817382812	32.31128692626953	-29.86704063415527	1075.243408203125	958.487548828125	-278.2628479003906	nan	nan	nan	
4	0.03	997.6804809570312	981.8797607421875	-33.33356475830078	983.10791015625	973.6309204101562	-164.4315032958984	997.944091796875	1046.337524414062	-96.97039794921875	1231.743408203125	1212.28271484375	-104.6243057250977	994.1842651367188	1143.577026367188	-102.2097549438477	1002.046569824219	1395.643432617188	-115.1573028564453	1168.8466796875	1328.159423828125	-107.3913803100586	978.1851806640625	1248.42919921875	-41.72270584106445	997.8948364257812	1355.520874023438	-220.5105590820312	1087.260009765625	1379.28857421875	-269.3753662109375	1077.2255859375	1260.354736328125	-339.710205078125	1107.220947265625	1062.853271484375	-353.8179931640625	1042.654174804688	1041.835327148438	-300.7712097167969	1205.7431640625	857.7357177734375	-286.1999206542969	1163.94873046875	836.0206298828125	-354.2676086425781	1130.646240234375	959.0318603515625	-355.1282653808594	1220.1025390625	681.1091918945312	-281.4595031738281	1183.606323242188	752.961669921875	-340.3070068359375	1233.146362304688	762.9246826171875	-299.525390625	1074.233276367188	1383.223999023438	47.28998565673828	1071.95654296875	1318.892456054688	108.5038604736328	1086.616455078125	1056.810791015625	142.6328277587891	1058.571044921875	1046.47119140625	53.77994537353516	1216.293579101562	845.4642944335938	98.12720489501953	1179.470092773438	831.4412841796875	160.9869384765625	1114.242309570312	990.9437255859375	154.5706787109375	1224.380859375	673.129638671875	97.75189208984375	1241.62744140625	742.5322875976562	114.9876480102539	1187.639404296875	741.95166015625	158.1101989746094	1007.939514160156	1587.789306640625	-56.32089233398438	1192.434692382812	1603.976318359375	-128.6240997314453	1136.8125	1605.692016601562	-17.6275634765625	1066.106811523438	1583.612670898438	-205.4597320556641	1092.579711914062	955.8972778320312	79.49347686767578	1216.33984375	966.9441528320312	17.09672737121582	1186.608276367188	956.5074462890625	-242.4334716796875	1097.10205078125	465.2710876464844	-260.6045837402344	1096.081665039062	607.977294921875	-272.0691833496094	1003.909790039062	31.02437400817871	-214.6575927734375	1045.835815429688	235.3913726806641	-250.3633422851562	1219.777954101562	32.08442306518555	-153.6068267822266	1140.46875	34.91328048706055	-123.4452896118164	1131.403564453125	30.61391067504883	-227.1653747558594	967.1549072265625	28.46959114074707	-157.5457458496094	1103.156127929688	466.9018249511719	56.94281768798828	1155.3505859375	727.9222412109375	78.40214538574219	1047.171020507812	45.89809036254883	22.41318702697754	1108.303955078125	341.7435302734375	42.45021820068359	1225.05126953125	26.58817291259766	-43.88325881958008	1148.5810546875	33.36770629882812	-71.01886749267578	1130.652954101562	34.8908805847168	26.92742347717285	970.3958129882812	32.30775833129883	-29.86508369445801	1075.2841796875	958.4683227539062	-278.280029296875	nan	nan	nan	
